<svg width="338" height="75" viewBox="0 0 338 75" fill="none" xmlns="http://www.w3.org/2000/svg">
<path d="M295.028 22.2853H273.725C273.124 22.2853 272.61 22.7408 272.505 23.373L264.224 73.4474C264.094 74.2562 264.669 74.9907 265.445 74.9907H277.761C278.363 74.9907 278.877 74.5351 278.981 73.9029L280.55 64.4013C280.777 63.0532 282.546 62.9137 282.939 64.2246L285.928 74.0889C286.094 74.6281 286.565 75 287.105 75H299.334C300.171 75 300.764 74.1261 300.511 73.28L295.159 55.6434C294.898 54.788 295.499 53.9234 296.336 53.9234C301.069 53.9234 305.122 50.2975 305.942 45.3236L307.188 37.765C308.522 29.6951 302.699 22.3039 295.02 22.3039L295.028 22.2853ZM292.675 35.9242L291.803 41.1956C291.594 42.4507 290.566 43.3712 289.371 43.3712H285.501C284.734 43.3712 284.15 42.6274 284.281 41.8278L285.353 35.357L281.204 33.8602C280.672 33.665 280.803 32.8375 281.361 32.8375H290.243C291.777 32.8375 292.945 34.3158 292.675 35.9335V35.9242Z" fill="#6563FB"/>
<path d="M265.776 22.2853H236.166C235.565 22.2853 235.05 22.7408 234.946 23.373L226.665 73.4474C226.534 74.2562 227.11 74.9907 227.885 74.9907H257.495C258.097 74.9907 258.611 74.5351 258.716 73.9029L260.023 66.0004C260.154 65.1915 259.579 64.4571 258.803 64.4571H242.982L244.726 53.9141H254.584C255.185 53.9141 255.7 53.4586 255.804 52.8263L257.112 44.9238C257.243 44.1149 256.667 43.3805 255.892 43.3805H247.933C247.166 43.3805 246.582 42.6367 246.713 41.8371L247.785 35.3663L243.636 33.8695C243.104 33.6743 243.235 32.8468 243.793 32.8468H264.46C265.061 32.8468 265.576 32.3913 265.68 31.7591L266.988 23.8565C267.118 23.0476 266.543 22.3132 265.767 22.3132L265.776 22.2853Z" fill="#6563FB"/>
<path d="M229.019 22.2853H217.016C216.519 22.2853 216.075 22.6014 215.883 23.0848L204.011 52.5846L199.862 51.0878C199.33 50.8925 199.461 50.0651 200.019 50.0651H204.194L206.077 23.7077C206.129 22.9454 205.563 22.2853 204.848 22.2853H192.497C191.852 22.2853 191.311 22.8152 191.268 23.5032L187.685 73.5775C187.633 74.3399 188.199 75 188.914 75H209.006C209.502 75 209.947 74.6839 210.139 74.2004L230.152 24.1261C230.501 23.2615 229.899 22.2946 229.019 22.2946V22.2853Z" fill="#6563FB"/>
<path d="M165.493 73.4474L173.774 23.373C173.878 22.7408 174.392 22.2853 174.994 22.2853H184.835C185.602 22.2853 186.186 23.0291 186.055 23.8286L177.774 73.9029C177.67 74.5351 177.156 74.9907 176.554 74.9907H166.713C165.946 74.9907 165.362 74.2469 165.493 73.4474Z" fill="#6563FB"/>
<path d="M154.188 22.2853H132.885C132.283 22.2853 131.769 22.7408 131.664 23.373L123.384 73.4474C123.253 74.2562 123.828 74.9907 124.604 74.9907H136.92C137.522 74.9907 138.036 74.5351 138.141 73.9029L139.71 64.4013C139.936 63.0532 141.706 62.9137 142.098 64.2246L145.088 74.0889C145.253 74.6281 145.724 75 146.265 75H158.494C159.331 75 159.923 74.1261 159.67 73.28L154.319 55.6434C154.057 54.788 154.659 53.9234 155.495 53.9234C160.228 53.9234 164.282 50.2975 165.101 45.3236L166.347 37.765C167.681 29.6951 161.858 22.3039 154.179 22.3039L154.188 22.2853ZM151.826 35.9242L150.954 41.1956C150.745 42.4507 149.716 43.3712 148.522 43.3712H144.652C143.885 43.3712 143.301 42.6274 143.432 41.8278L144.504 35.357L140.355 33.8602C139.823 33.665 139.954 32.8375 140.512 32.8375H149.394C150.928 32.8375 152.096 34.3158 151.826 35.9335V35.9242Z" fill="#6563FB"/>
<path d="M111.189 22.3038H89.3807C88.7793 22.3038 88.265 22.7594 88.1604 23.3916L79.871 73.4566C79.7403 74.2655 80.3156 75 81.0913 75H106.822C112.819 75 117.945 70.4072 118.991 64.113L123.366 37.7743C124.7 29.7043 118.877 22.3131 111.198 22.3131L111.189 22.3038ZM108.836 35.9334L104.46 62.2722C104.251 63.5273 103.223 64.4477 102.028 64.4477H97.6527C96.8856 64.4477 96.3016 63.7039 96.4324 62.9044L101 35.357L96.8508 33.8602C96.319 33.6649 96.4498 32.8375 97.0077 32.8375H106.387C107.921 32.8375 109.089 34.3157 108.818 35.9334H108.836Z" fill="#6563FB"/>
<path d="M73.778 22.2853H51.7688C48.1689 22.2853 45.092 25.0372 44.4731 28.8212L38.3716 65.7122C37.5697 70.556 41.065 74.9907 45.6673 74.9907H67.6764C71.2763 74.9907 74.3533 72.2388 74.9721 68.4548L81.0737 31.5638C81.8756 26.72 78.3803 22.2853 73.778 22.2853ZM65.785 34.3808L60.9909 63.3693C60.8863 64.0015 60.372 64.4571 59.7706 64.4571H54.8632C54.0961 64.4571 53.5121 63.7133 53.6429 62.9137L58.2016 35.357L54.0526 33.8602C53.5209 33.665 53.6516 32.8375 54.2095 32.8375H64.5559C65.323 32.8375 65.907 33.5813 65.7762 34.3808H65.785Z" fill="#6563FB"/>
<path d="M38.5896 22.3038H13.5122C9.91231 22.3038 6.83539 25.0558 6.21651 28.8397L0.114972 65.7214C-0.686945 70.5652 2.80837 75 7.41067 75H30.3089C30.9103 75 31.4246 74.5444 31.5292 73.9122L32.8367 66.0096C32.9674 65.2008 32.3921 64.4663 31.6164 64.4663H16.624C15.857 64.4663 15.2729 63.7225 15.4037 62.923L19.9537 35.3756L15.8047 33.8788C15.2729 33.6835 15.4037 32.8561 15.9615 32.8561H37.2734C37.8748 32.8561 38.3891 32.4005 38.4937 31.7683L39.8011 23.8658C39.9319 23.0569 39.3566 22.3224 38.5808 22.3224L38.5896 22.3038Z" fill="#6563FB"/>
<path d="M327.651 20.3236C327.939 20.2213 328 19.8123 327.755 19.71L324.957 18.5664C321.854 17.2927 319.701 14.5036 319.091 10.9707L318.542 7.78177C318.49 7.49356 318.115 7.49356 317.967 7.78177L316.363 10.9707C314.585 14.5036 311.508 17.2927 307.986 18.5664L305.895 19.3195C305.633 19.4125 305.616 19.7844 305.86 19.9145C307.83 20.9651 309.599 22.4433 311.055 24.2842C312.606 26.2552 313.705 28.533 314.306 30.9409C314.411 31.3407 314.916 31.4058 315.099 31.0339L316.093 29.0629C317.871 25.53 320.948 22.7408 324.469 21.4671L327.651 20.3236Z" fill="#6563FB"/>
<path d="M337.919 6.164L336.498 5.57828C334.929 4.93677 333.84 3.52361 333.526 1.72927L333.247 0.111566C333.221 -0.0371885 333.029 -0.0371885 332.951 0.111566L332.14 1.72927C331.242 3.52361 329.682 4.92748 327.895 5.57828L326.282 6.164C326.134 6.21978 326.099 6.42431 326.23 6.4801L327.651 7.06582C329.22 7.70732 330.309 9.12048 330.623 10.9148L330.902 12.5325C330.928 12.6813 331.12 12.6813 331.199 12.5325L332.009 10.9148C332.907 9.12048 334.467 7.71662 336.254 7.06582L337.867 6.4801C338.015 6.42431 338.05 6.21978 337.919 6.164Z" fill="#6563FB"/>
<path d="M333.386 33.5625L331.965 32.9861C330.396 32.3446 329.307 30.9314 328.993 29.1371L328.714 27.5194C328.688 27.3706 328.496 27.3706 328.418 27.5194L327.607 29.1371C326.709 30.9314 325.149 32.3353 323.362 32.9861L321.75 33.5625C321.601 33.6183 321.567 33.8229 321.697 33.8786L323.118 34.4644C324.687 35.1059 325.777 36.519 326.09 38.3134L326.369 39.9311C326.396 40.0798 326.587 40.0798 326.666 39.9311L327.476 38.3134C328.374 36.519 329.934 35.1152 331.721 34.4644L333.334 33.8786C333.482 33.8229 333.517 33.6183 333.386 33.5625Z" fill="#6563FB"/>
</svg>
