<svg width="304" height="324" viewBox="0 0 304 324" fill="none" xmlns="http://www.w3.org/2000/svg">
<path d="M301.769 157.937L265.341 142.93C225.115 126.492 197.176 90.2837 189.129 44.3082L181.977 2.85858C181.309 -0.95286 176.39 -0.95286 174.382 2.85858L153.596 44.3082C130.576 90.2837 90.5765 126.254 44.7631 142.93L3.4155 157.937C-0.381934 159.366 -1.27667 164.607 2.0779 166.036L38.5058 181.044C78.7317 197.481 106.671 233.69 114.708 279.665L121.86 321.114C122.538 324.926 127.448 324.926 129.464 321.114L150.25 279.665C173.261 233.69 213.27 197.719 259.084 181.044L300.431 166.036C304.228 164.607 305.124 159.366 301.769 157.937Z" fill="#6563FB"/>
</svg>
